<?xml version="1.0" standalone="no"?><svg xmlns:xlink="http://www.w3.org/1999/xlink" xmlns="http://www.w3.org/2000/svg" viewBox="0 0 1000 700.0190537730613" preserveAspectRatio="xMaxYMax slice"><g transform="scale(2.071062289269412)"><rect x="0" y="0" width="482.85714285714283" height="338" fill="#DEE1E6"/><rect x="0" y="0" width="48.29" height="48.29" fill="#e3c0a8"/><polygon points="0,0 48.29,48.29 0,48.29" fill="#e5b391"/><rect x="48.285714285714285" y="0" width="48.285714285714285" height="48.285714285714285" fill="#DEE1E6"/><rect x="48.29" y="0" width="24.14" height="24.14" fill="#3c3f44"/><polygon points="72.43,0 72.43,24.14 48.29,24.14" fill="#eb8c49"/><rect x="72.43" y="0" width="24.14" height="24.14" fill="#c9ccd1"/><polygon points="72.43,0 96.57000000000001,24.14 72.43,24.14" fill="#c1c4c9"/><rect x="48.29" y="24.14" width="24.14" height="24.14" fill="#474a4f"/><polygon points="48.29,24.14 72.43,24.14 72.43,48.28" fill="#dfddde"/><rect x="72.43" y="24.14" width="24.14" height="24.14" fill="#eb8943"/><polygon points="72.43,24.14 96.57000000000001,24.14 72.43,48.28" fill="#46494e"/><rect x="96.57" y="0" width="48.29" height="48.29" fill="#979a9f"/><polygon points="96.57,0 144.85999999999999,48.29 96.57,48.29" fill="#919499"/><rect x="144.85714285714286" y="0" width="48.285714285714285" height="48.285714285714285" fill="#DEE1E6"/><rect x="144.86" y="0" width="24.14" height="24.14" fill="#1a1d22"/><path d="M 144.86 0 A 24.14 24.14 0 0 1 169 24.14 L 144.86 24.14" fill="#575a5f"/><rect x="169" y="0" width="24.14" height="24.14" fill="#ec8237"/><path d="M 169 24.14 A 24.14 24.14 0 0 1  193.14 0 L 193.14 24.14" fill="#ec873f"/><rect x="144.86" y="24.14" width="24.14" height="24.14" fill="#afb2b7"/><path d="M 144.86 48.28 A 24.14 24.14 0 0 0 169 24.14 L 144.86 24.14" fill="#eb8842"/><rect x="169" y="24.14" width="24.14" height="24.14" fill="#181b20"/><path d="M 169 24.14 A 24.14 24.14 0 0 0 193.14 48.28 L 193.14 24.14" fill="#e0d3cb"/><rect x="193.14" y="0" width="48.29" height="48.29" fill="#8e9196"/><path d="M 193.14 48.29 A 48.29 48.29 0 0 1  241.42999999999998 0 L 241.42999999999998 48.29" fill="#5c5f64"/><rect x="241.43" y="0" width="48.29" height="48.29" fill="#383b40"/><path d="M 241.43 48.29 A 48.29 48.29 0 0 0 289.72 0 L 241.43 0" fill="#e6aa81"/><rect x="289.71" y="0" width="48.29" height="48.29" fill="#eb8d4b"/><polygon points="289.71,0 338,0 338,48.29" fill="#e6ae88"/><rect x="338" y="0" width="48.29" height="48.29" fill="#eb8841"/><polygon points="338,0 386.29,0 338,48.29" fill="#e1cfc4"/><rect x="386.29" y="0" width="48.29" height="48.29" fill="#a4a7ac"/><path d="M 386.29 0 A 48.29 48.29 0 0 0 434.58000000000004 48.29 L 434.58000000000004 0" fill="#dfdad8"/><rect x="434.57142857142856" y="0" width="48.285714285714285" height="48.285714285714285" fill="#DEE1E6"/><rect x="434.57" y="0" width="24.14" height="24.14" fill="#e5b08c"/><polygon points="458.71,0 458.71,24.14 434.57,24.14" fill="#e3c0a8"/><rect x="458.71" y="0" width="24.14" height="24.14" fill="#d4d7dc"/><polygon points="458.71,0 482.84999999999997,0 458.71,24.14" fill="#84878c"/><rect x="434.57" y="24.14" width="24.14" height="24.14" fill="#3c3f44"/><polygon points="434.57,24.14 458.71,24.14 458.71,48.28" fill="#e4b99b"/><rect x="458.71" y="24.14" width="24.14" height="24.14" fill="#e6ab81"/><polygon points="458.71,24.14 482.84999999999997,48.28 458.71,48.28" fill="#393c41"/><rect x="0" y="48.285714285714285" width="48.285714285714285" height="48.285714285714285" fill="#DEE1E6"/><rect x="0" y="48.29" width="24.14" height="24.14" fill="#c3c6cb"/><path d="M 0 72.43 A 24.14 24.14 0 0 1  24.14 48.29 L 24.14 72.43" fill="#ec863d"/><rect x="24.14" y="48.29" width="24.14" height="24.14" fill="#e3c1aa"/><path d="M 24.14 48.29 A 24.14 24.14 0 0 1 48.28 72.43 L 24.14 72.43" fill="#404348"/><rect x="0" y="72.43" width="24.14" height="24.14" fill="#56595e"/><path d="M 0 72.43 A 24.14 24.14 0 0 0 24.14 96.57000000000001 L 24.14 72.43" fill="#6f7277"/><rect x="24.14" y="72.43" width="24.14" height="24.14" fill="#c6c9ce"/><path d="M 24.14 96.57000000000001 A 24.14 24.14 0 0 0 48.28 72.43 L 24.14 72.43" fill="#26292e"/><rect x="48.285714285714285" y="48.285714285714285" width="48.285714285714285" height="48.285714285714285" fill="#DEE1E6"/><rect x="48.29" y="48.29" width="24.14" height="24.14" fill="#dde0e5"/><path d="M 48.29 48.29 A 24.14 24.14 0 0 1 72.43 72.43 L 48.29 72.43" fill="#e2c4b0"/><rect x="72.43" y="48.29" width="24.14" height="24.14" fill="#ed8033"/><path d="M 72.43 72.43 A 24.14 24.14 0 0 1  96.57000000000001 48.29 L 96.57000000000001 72.43" fill="#b3b6bb"/><rect x="48.29" y="72.43" width="24.14" height="24.14" fill="#34373c"/><path d="M 48.29 96.57000000000001 A 24.14 24.14 0 0 0 72.43 72.43 L 48.29 72.43" fill="#ed7e2f"/><rect x="72.43" y="72.43" width="24.14" height="24.14" fill="#191c21"/><path d="M 72.43 72.43 A 24.14 24.14 0 0 0 96.57000000000001 96.57000000000001 L 96.57000000000001 72.43" fill="#e89c66"/><rect x="96.57" y="48.29" width="48.29" height="48.29" fill="#ea9253"/><rect x="96.57" y="48.29" width="48.29" height="48.29" fill="#ea9255"/><rect x="144.85714285714286" y="48.285714285714285" width="48.285714285714285" height="48.285714285714285" fill="#DEE1E6"/><rect x="144.86" y="48.29" width="24.14" height="24.14" fill="#e1cdc1"/><path d="M 144.86 48.29 A 24.14 24.14 0 0 1 169 72.43 L 144.86 72.43" fill="#ec8337"/><rect x="169" y="48.29" width="24.14" height="24.14" fill="#44474c"/><path d="M 169 72.43 A 24.14 24.14 0 0 1  193.14 48.29 L 193.14 72.43" fill="#bbbec3"/><rect x="144.86" y="72.43" width="24.14" height="24.14" fill="#eb8943"/><path d="M 144.86 96.57000000000001 A 24.14 24.14 0 0 0 169 72.43 L 144.86 72.43" fill="#e2c7b5"/><rect x="169" y="72.43" width="24.14" height="24.14" fill="#e3bda3"/><path d="M 169 72.43 A 24.14 24.14 0 0 0 193.14 96.57000000000001 L 193.14 72.43" fill="#e9985e"/><rect x="193.14" y="48.29" width="48.29" height="48.29" fill="#676a6f"/><rect x="193.14" y="48.29" width="48.29" height="48.29" fill="#e7a87d"/><rect x="241.42857142857142" y="48.285714285714285" width="48.285714285714285" height="48.285714285714285" fill="#DEE1E6"/><rect x="241.43" y="48.29" width="24.14" height="24.14" fill="#e5b390"/><path d="M 241.43 72.43 A 24.14 24.14 0 0 0 265.57 48.29 L 241.43 48.29" fill="#b2b5ba"/><rect x="265.57" y="48.29" width="24.14" height="24.14" fill="#eb8943"/><path d="M 265.57 48.29 A 24.14 24.14 0 0 0 289.71 72.43 L 289.71 48.29" fill="#898c91"/><rect x="241.43" y="72.43" width="24.14" height="24.14" fill="#e3bca2"/><path d="M 241.43 72.43 A 24.14 24.14 0 0 1 265.57 96.57000000000001 L 241.43 96.57000000000001" fill="#bec1c6"/><rect x="265.57" y="72.43" width="24.14" height="24.14" fill="#ec8338"/><path d="M 265.57 96.57000000000001 A 24.14 24.14 0 0 1  289.71 72.43 L 289.71 96.57000000000001" fill="#c0c3c8"/><rect x="289.71" y="48.29" width="48.29" height="48.29" fill="#303338"/><path d="M 289.71 48.29 A 48.29 48.29 0 0 0 338 96.58 L 338 48.29" fill="#878a8f"/><rect x="338" y="48.29" width="48.29" height="48.29" fill="#7d8085"/><path d="M 338 96.58 A 48.29 48.29 0 0 1  386.29 48.29 L 386.29 96.58" fill="#e3c0a8"/><rect x="386.2857142857143" y="48.285714285714285" width="48.285714285714285" height="48.285714285714285" fill="#DEE1E6"/><rect x="386.29" y="48.29" width="24.14" height="24.14" fill="#d9dce1"/><polygon points="410.43,48.29 410.43,72.43 386.29,72.43" fill="#96999e"/><rect x="410.43" y="48.29" width="24.14" height="24.14" fill="#e99559"/><polygon points="410.43,48.29 434.57,48.29 410.43,72.43" fill="#a1a4a9"/><rect x="386.29" y="72.43" width="24.14" height="24.14" fill="#e4b899"/><polygon points="386.29,72.43 410.43,72.43 410.43,96.57000000000001" fill="#dfddde"/><rect x="410.43" y="72.43" width="24.14" height="24.14" fill="#3e4146"/><polygon points="410.43,72.43 434.57,96.57000000000001 410.43,96.57000000000001" fill="#e3bfa6"/><rect x="434.57142857142856" y="48.285714285714285" width="48.285714285714285" height="48.285714285714285" fill="#DEE1E6"/><rect x="434.57" y="48.29" width="24.14" height="24.14" fill="#393c41"/><polygon points="458.71,48.29 458.71,72.43 434.57,72.43" fill="#aaadb2"/><rect x="458.71" y="48.29" width="24.14" height="24.14" fill="#dfd9d7"/><polygon points="458.71,48.29 482.84999999999997,72.43 458.71,72.43" fill="#e1d0c6"/><rect x="434.57" y="72.43" width="24.14" height="24.14" fill="#e5b18d"/><polygon points="434.57,72.43 458.71,72.43 434.57,96.57000000000001" fill="#6b6e73"/><rect x="458.71" y="72.43" width="24.14" height="24.14" fill="#afb2b7"/><polygon points="458.71,72.43 482.84999999999997,72.43 482.84999999999997,96.57000000000001" fill="#e8a06e"/><rect x="0" y="96.57142857142857" width="48.285714285714285" height="48.285714285714285" fill="#DEE1E6"/><rect x="0" y="96.57" width="24.14" height="24.14" fill="#cbced3"/><path d="M 0 96.57 A 24.14 24.14 0 0 0 24.14 120.71 L 24.14 96.57" fill="#ea9152"/><rect x="24.14" y="96.57" width="24.14" height="24.14" fill="#c5c8cd"/><path d="M 24.14 120.71 A 24.14 24.14 0 0 0 48.28 96.57 L 24.14 96.57" fill="#b5b8bd"/><rect x="0" y="120.71" width="24.14" height="24.14" fill="#7c7f84"/><path d="M 0 144.85 A 24.14 24.14 0 0 1  24.14 120.71 L 24.14 144.85" fill="#ea9153"/><rect x="24.14" y="120.71" width="24.14" height="24.14" fill="#c5c8cd"/><path d="M 24.14 120.71 A 24.14 24.14 0 0 1 48.28 144.85 L 24.14 144.85" fill="#c2c5ca"/><rect x="48.29" y="96.57" width="48.29" height="48.29" fill="#b3b6bb"/><polygon points="48.29,96.57 96.58,96.57 96.58,144.85999999999999" fill="#ed7f31"/><rect x="96.57142857142857" y="96.57142857142857" width="48.285714285714285" height="48.285714285714285" fill="#DEE1E6"/><rect x="96.57" y="96.57" width="24.14" height="24.14" fill="#e6aa80"/><polygon points="120.71,96.57 120.71,120.71 96.57,120.71" fill="#e4b797"/><rect x="120.71" y="96.57" width="24.14" height="24.14" fill="#54575c"/><polygon points="120.71,96.57 144.85,120.71 120.71,120.71" fill="#b9bcc1"/><rect x="96.57" y="120.71" width="24.14" height="24.14" fill="#8c8f94"/><polygon points="96.57,120.71 120.71,120.71 120.71,144.85" fill="#898c91"/><rect x="120.71" y="120.71" width="24.14" height="24.14" fill="#575a5f"/><polygon points="120.71,120.71 144.85,120.71 120.71,144.85" fill="#373a3f"/><rect x="144.86" y="96.57" width="48.29" height="48.29" fill="#ed7f30"/><path d="M 144.86 144.85999999999999 A 48.29 48.29 0 0 1  193.15 96.57 L 193.15 144.85999999999999" fill="#9fa2a7"/><rect x="193.14" y="96.57" width="48.29" height="48.29" fill="#272a2f"/><polygon points="193.14,96.57 241.42999999999998,96.57 193.14,144.85999999999999" fill="#ec8135"/><rect x="241.43" y="96.57" width="48.29" height="48.29" fill="#e7a373"/><polygon points="241.43,96.57 289.72,144.85999999999999 241.43,144.85999999999999" fill="#55585d"/><rect x="289.7142857142857" y="96.57142857142857" width="48.285714285714285" height="48.285714285714285" fill="#DEE1E6"/><rect x="289.71" y="96.57" width="24.14" height="24.14" fill="#b8bbc0"/><path d="M 289.71 120.71 A 24.14 24.14 0 0 1  313.84999999999997 96.57 L 313.84999999999997 120.71" fill="#ec843a"/><rect x="313.86" y="96.57" width="24.14" height="24.14" fill="#777a7f"/><path d="M 313.86 96.57 A 24.14 24.14 0 0 1 338 120.71 L 313.86 120.71" fill="#e6ad85"/><rect x="289.71" y="120.71" width="24.14" height="24.14" fill="#e2c4af"/><path d="M 289.71 120.71 A 24.14 24.14 0 0 0 313.84999999999997 144.85 L 313.84999999999997 120.71" fill="#8e9196"/><rect x="313.86" y="120.71" width="24.14" height="24.14" fill="#e3bfa7"/><path d="M 313.86 144.85 A 24.14 24.14 0 0 0 338 120.71 L 313.86 120.71" fill="#4b4e53"/><rect x="338" y="96.57142857142857" width="48.285714285714285" height="48.285714285714285" fill="#DEE1E6"/><rect x="338" y="96.57" width="24.14" height="24.14" fill="#5b5e63"/><polygon points="362.14,96.57 362.14,120.71 338,120.71" fill="#7d8085"/><rect x="362.14" y="96.57" width="24.14" height="24.14" fill="#e4ba9e"/><polygon points="362.14,96.57 386.28,120.71 362.14,120.71" fill="#7b7e83"/><rect x="338" y="120.71" width="24.14" height="24.14" fill="#e2c5b2"/><polygon points="338,120.71 362.14,120.71 362.14,144.85" fill="#5f6267"/><rect x="362.14" y="120.71" width="24.14" height="24.14" fill="#ed7f30"/><polygon points="362.14,120.71 386.28,120.71 362.14,144.85" fill="#eb8944"/><rect x="386.29" y="96.57" width="48.29" height="48.29" fill="#e3bea5"/><polygon points="386.29,96.57 434.58000000000004,96.57 386.29,144.85999999999999" fill="#e3c1ab"/><rect x="434.57" y="96.57" width="48.29" height="48.29" fill="#cfd2d7"/><path d="M 434.57 144.85999999999999 A 48.29 48.29 0 0 0 482.86 96.57 L 434.57 96.57" fill="#e5b594"/><rect x="0" y="144.85714285714286" width="48.285714285714285" height="48.285714285714285" fill="#DEE1E6"/><rect x="0" y="144.86" width="24.14" height="24.14" fill="#84878c"/><path d="M 0 169 A 24.14 24.14 0 0 1  24.14 144.86 L 24.14 169" fill="#ea8f4f"/><rect x="24.14" y="144.86" width="24.14" height="24.14" fill="#ec8135"/><path d="M 24.14 144.86 A 24.14 24.14 0 0 1 48.28 169 L 24.14 169" fill="#eb8a45"/><rect x="0" y="169" width="24.14" height="24.14" fill="#ec8236"/><path d="M 0 169 A 24.14 24.14 0 0 0 24.14 193.14 L 24.14 169" fill="#5b5e63"/><rect x="24.14" y="169" width="24.14" height="24.14" fill="#e89d69"/><path d="M 24.14 193.14 A 24.14 24.14 0 0 0 48.28 169 L 24.14 169" fill="#9c9fa4"/><rect x="48.29" y="144.86" width="48.29" height="48.29" fill="#25282d"/><path d="M 48.29 144.86 A 48.29 48.29 0 0 1 96.58 193.15 L 48.29 193.15" fill="#888b90"/><rect x="96.57" y="144.86" width="48.29" height="48.29" fill="#e89d68"/><polygon points="96.57,144.86 144.85999999999999,144.86 96.57,193.15" fill="#e6aa80"/><rect x="144.85714285714286" y="144.85714285714286" width="48.285714285714285" height="48.285714285714285" fill="#DEE1E6"/><rect x="144.86" y="144.86" width="24.14" height="24.14" fill="#c7cacf"/><path d="M 144.86 144.86 A 24.14 24.14 0 0 1 169 169 L 144.86 169" fill="#e9965c"/><rect x="169" y="144.86" width="24.14" height="24.14" fill="#46494e"/><path d="M 169 169 A 24.14 24.14 0 0 1  193.14 144.86 L 193.14 169" fill="#e2c4b0"/><rect x="144.86" y="169" width="24.14" height="24.14" fill="#aaadb2"/><path d="M 144.86 193.14 A 24.14 24.14 0 0 0 169 169 L 144.86 169" fill="#ec8338"/><rect x="169" y="169" width="24.14" height="24.14" fill="#ea9458"/><path d="M 169 169 A 24.14 24.14 0 0 0 193.14 193.14 L 193.14 169" fill="#d8dbe0"/><rect x="193.14285714285714" y="144.85714285714286" width="48.285714285714285" height="48.285714285714285" fill="#DEE1E6"/><rect x="193.14" y="144.86" width="24.14" height="24.14" fill="#ea9050"/><path d="M 193.14 169 A 24.14 24.14 0 0 1 217.27999999999997 144.86 L 217.27999999999997 150.895 A 18.105 18.105 0 0 0 199.17499999999998 169" fill="#e2c6b3"/><rect x="217.29" y="144.86" width="24.14" height="24.14" fill="#e6ab83"/><path d="M 217.29 144.86 A 24.14 24.14 0 0 1 241.43 169 L 235.39499999999998 169 A 18.105 18.105 0 0 0 217.29 150.895" fill="#5a5d62"/><rect x="193.14" y="169" width="24.14" height="24.14" fill="#ea9355"/><path d="M 193.14 169 A 24.14 24.14 0 0 0 217.27999999999997 193.14 L 217.27999999999997 187.105 A 18.105 18.105 0 0 1 199.17499999999998 169" fill="#5b5e63"/><rect x="217.29" y="169" width="24.14" height="24.14" fill="#bfc2c7"/><path d="M 217.29 193.14 A 24.14 24.14 0 0 0 241.43 169 L 235.39499999999998 169 A 18.105 18.105 0 0 1 217.29 187.105" fill="#e7a577"/><rect x="241.42857142857142" y="144.85714285714286" width="48.285714285714285" height="48.285714285714285" fill="#DEE1E6"/><rect x="241.43" y="144.86" width="24.14" height="24.14" fill="#6c6f74"/><path d="M 241.43 144.86 A 24.14 24.14 0 0 0 265.57 169 L 265.57 144.86" fill="#ea9254"/><rect x="265.57" y="144.86" width="24.14" height="24.14" fill="#e1cfc5"/><path d="M 265.57 169 A 24.14 24.14 0 0 0 289.71 144.86 L 265.57 144.86" fill="#e0d2ca"/><rect x="241.43" y="169" width="24.14" height="24.14" fill="#595c61"/><path d="M 241.43 193.14 A 24.14 24.14 0 0 1  265.57 169 L 265.57 193.14" fill="#24272c"/><rect x="265.57" y="169" width="24.14" height="24.14" fill="#ec853c"/><path d="M 265.57 169 A 24.14 24.14 0 0 1 289.71 193.14 L 265.57 193.14" fill="#e9965b"/><rect x="289.71" y="144.86" width="48.29" height="48.29" fill="#e7a374"/><path d="M 289.71 193.15 A 48.29 48.29 0 0 1  338 144.86 L 289.71 193.15 A 48.29 48.29 0 0 0 338 144.86" fill="#aeb1b6"/><rect x="338" y="144.85714285714286" width="48.285714285714285" height="48.285714285714285" fill="#DEE1E6"/><rect x="338" y="144.86" width="24.14" height="24.14" fill="#515459"/><polygon points="362.14,144.86 362.14,169 338,169" fill="#d2d5da"/><rect x="362.14" y="144.86" width="24.14" height="24.14" fill="#d8dbe0"/><polygon points="362.14,144.86 386.28,169 362.14,169" fill="#85888d"/><rect x="338" y="169" width="24.14" height="24.14" fill="#b7babf"/><polygon points="338,169 362.14,169 362.14,193.14" fill="#e3c0a9"/><rect x="362.14" y="169" width="24.14" height="24.14" fill="#ec843a"/><polygon points="362.14,169 386.28,169 362.14,193.14" fill="#e3c1ab"/><rect x="386.2857142857143" y="144.85714285714286" width="48.285714285714285" height="48.285714285714285" fill="#DEE1E6"/><rect x="386.29" y="144.86" width="24.14" height="24.14" fill="#dfdcdc"/><polygon points="410.43,144.86 410.43,169 386.29,169" fill="#dfdad8"/><rect x="410.43" y="144.86" width="24.14" height="24.14" fill="#ec863f"/><polygon points="410.43,144.86 434.57,169 410.43,169" fill="#2a2d32"/><rect x="386.29" y="169" width="24.14" height="24.14" fill="#dee0e4"/><polygon points="386.29,169 410.43,169 410.43,193.14" fill="#b7babf"/><rect x="410.43" y="169" width="24.14" height="24.14" fill="#e7a475"/><polygon points="410.43,169 434.57,169 410.43,193.14" fill="#ed7f31"/><rect x="434.57" y="144.86" width="48.29" height="48.29" fill="#dedfe3"/><path d="M 434.57 193.15 A 48.29 48.29 0 0 1  482.86 144.86 L 434.57 193.15 A 48.29 48.29 0 0 0 482.86 144.86" fill="#9ea1a6"/><rect x="0" y="193.14" width="48.29" height="48.29" fill="#393c41"/><rect x="0" y="193.14" width="48.29" height="48.29" fill="#717479"/><rect x="48.285714285714285" y="193.14285714285714" width="48.285714285714285" height="48.285714285714285" fill="#DEE1E6"/><rect x="48.29" y="193.14" width="24.14" height="24.14" fill="#e89f6c"/><path d="M 48.29 217.27999999999997 A 24.14 24.14 0 0 0 72.43 193.14 L 48.29 193.14" fill="#73767b"/><rect x="72.43" y="193.14" width="24.14" height="24.14" fill="#707378"/><path d="M 72.43 193.14 A 24.14 24.14 0 0 0 96.57000000000001 217.27999999999997 L 96.57000000000001 193.14" fill="#a4a7ac"/><rect x="48.29" y="217.29" width="24.14" height="24.14" fill="#1c1f24"/><path d="M 48.29 217.29 A 24.14 24.14 0 0 1 72.43 241.43 L 48.29 241.43" fill="#e4bb9f"/><rect x="72.43" y="217.29" width="24.14" height="24.14" fill="#e3bfa7"/><path d="M 72.43 241.43 A 24.14 24.14 0 0 1  96.57000000000001 217.29 L 96.57000000000001 241.43" fill="#e89d68"/><rect x="96.57" y="193.14" width="48.29" height="48.29" fill="#777a7f"/><polygon points="144.85999999999999,193.14 144.85999999999999,241.42999999999998 96.57,241.42999999999998" fill="#505358"/><rect x="144.85714285714286" y="193.14285714285714" width="48.285714285714285" height="48.285714285714285" fill="#DEE1E6"/><rect x="144.86" y="193.14" width="24.14" height="24.14" fill="#e2c7b6"/><path d="M 144.86 217.27999999999997 A 24.14 24.14 0 0 0 169 193.14 L 144.86 193.14" fill="#e89b65"/><rect x="169" y="193.14" width="24.14" height="24.14" fill="#b2b5ba"/><path d="M 169 193.14 A 24.14 24.14 0 0 0 193.14 217.27999999999997 L 193.14 193.14" fill="#3f4247"/><rect x="144.86" y="217.29" width="24.14" height="24.14" fill="#76797e"/><path d="M 144.86 217.29 A 24.14 24.14 0 0 1 169 241.43 L 144.86 241.43" fill="#e3c2ad"/><rect x="169" y="217.29" width="24.14" height="24.14" fill="#808388"/><path d="M 169 241.43 A 24.14 24.14 0 0 1  193.14 217.29 L 193.14 241.43" fill="#a0a3a8"/><rect x="193.14" y="193.14" width="48.29" height="48.29" fill="#e2c7b6"/><rect x="193.14" y="193.14" width="48.29" height="48.29" fill="#42454a"/><rect x="241.42857142857142" y="193.14285714285714" width="48.285714285714285" height="48.285714285714285" fill="#DEE1E6"/><rect x="241.43" y="193.14" width="24.14" height="24.14" fill="#dedfe3"/><polygon points="265.57,193.14 265.57,217.27999999999997 241.43,217.27999999999997" fill="#e6ab82"/><rect x="265.57" y="193.14" width="24.14" height="24.14" fill="#e6ad86"/><polygon points="265.57,193.14 289.71,193.14 265.57,217.27999999999997" fill="#54575c"/><rect x="241.43" y="217.29" width="24.14" height="24.14" fill="#e3bfa8"/><polygon points="241.43,217.29 265.57,217.29 265.57,241.43" fill="#85888d"/><rect x="265.57" y="217.29" width="24.14" height="24.14" fill="#dfdddf"/><polygon points="265.57,217.29 289.71,241.43 265.57,241.43" fill="#e7a272"/><rect x="289.7142857142857" y="193.14285714285714" width="48.285714285714285" height="48.285714285714285" fill="#DEE1E6"/><rect x="289.71" y="193.14" width="24.14" height="24.14" fill="#95989d"/><polygon points="313.84999999999997,193.14 313.84999999999997,217.27999999999997 289.71,217.27999999999997" fill="#e99559"/><rect x="313.86" y="193.14" width="24.14" height="24.14" fill="#7f8287"/><polygon points="313.86,193.14 338,217.27999999999997 313.86,217.27999999999997" fill="#36393e"/><rect x="289.71" y="217.29" width="24.14" height="24.14" fill="#92959a"/><polygon points="289.71,217.29 313.84999999999997,217.29 289.71,241.43" fill="#53565b"/><rect x="313.86" y="217.29" width="24.14" height="24.14" fill="#272a2f"/><polygon points="313.86,217.29 338,217.29 338,241.43" fill="#474a4f"/><rect x="338" y="193.14285714285714" width="48.285714285714285" height="48.285714285714285" fill="#DEE1E6"/><rect x="338" y="193.14" width="24.14" height="24.14" fill="#63666b"/><polygon points="362.14,193.14 362.14,217.27999999999997 338,217.27999999999997" fill="#ec8237"/><rect x="362.14" y="193.14" width="24.14" height="24.14" fill="#dfdbdc"/><polygon points="362.14,193.14 386.28,217.27999999999997 362.14,217.27999999999997" fill="#202328"/><rect x="338" y="217.29" width="24.14" height="24.14" fill="#999ca1"/><polygon points="338,217.29 362.14,217.29 338,241.43" fill="#e1cfc5"/><rect x="362.14" y="217.29" width="24.14" height="24.14" fill="#ec8237"/><polygon points="362.14,217.29 386.28,217.29 386.28,241.43" fill="#e2c5b2"/><rect x="386.29" y="193.14" width="48.29" height="48.29" fill="#e89d69"/><polygon points="386.29,193.14 434.58000000000004,193.14 386.29,241.42999999999998" fill="#5b5e63"/><rect x="434.57142857142856" y="193.14285714285714" width="48.285714285714285" height="48.285714285714285" fill="#DEE1E6"/><rect x="434.57" y="193.14" width="24.14" height="24.14" fill="#e0d5d0"/><polygon points="458.71,193.14 458.71,217.27999999999997 434.57,217.27999999999997" fill="#e1d0c6"/><rect x="458.71" y="193.14" width="24.14" height="24.14" fill="#e1cfc4"/><polygon points="458.71,193.14 482.84999999999997,193.14 458.71,217.27999999999997" fill="#abaeb3"/><rect x="434.57" y="217.29" width="24.14" height="24.14" fill="#dfdddf"/><polygon points="434.57,217.29 458.71,217.29 458.71,241.43" fill="#e9965c"/><rect x="458.71" y="217.29" width="24.14" height="24.14" fill="#dfd8d5"/><polygon points="458.71,217.29 482.84999999999997,241.43 458.71,241.43" fill="#eb8a45"/><rect x="0" y="241.42857142857142" width="48.285714285714285" height="48.285714285714285" fill="#DEE1E6"/><rect x="0" y="241.43" width="24.14" height="24.14" fill="#e2c5b2"/><polygon points="24.14,241.43 24.14,265.57 0,265.57" fill="#e5b391"/><rect x="24.14" y="241.43" width="24.14" height="24.14" fill="#92959a"/><polygon points="24.14,241.43 48.28,241.43 24.14,265.57" fill="#e3c2ae"/><rect x="0" y="265.57" width="24.14" height="24.14" fill="#eb8d4a"/><polygon points="0,265.57 24.14,265.57 24.14,289.71" fill="#b8bbc0"/><rect x="24.14" y="265.57" width="24.14" height="24.14" fill="#e5b594"/><polygon points="24.14,265.57 48.28,289.71 24.14,289.71" fill="#e89d69"/><rect x="48.285714285714285" y="241.42857142857142" width="48.285714285714285" height="48.285714285714285" fill="#DEE1E6"/><rect x="48.29" y="241.43" width="24.14" height="24.14" fill="#95989d"/><polygon points="72.43,241.43 72.43,265.57 48.29,265.57" fill="#e4b798"/><rect x="72.43" y="241.43" width="24.14" height="24.14" fill="#888b90"/><polygon points="72.43,241.43 96.57000000000001,265.57 72.43,265.57" fill="#e7a373"/><rect x="48.29" y="265.57" width="24.14" height="24.14" fill="#6a6d72"/><polygon points="48.29,265.57 72.43,265.57 72.43,289.71" fill="#ea9254"/><rect x="72.43" y="265.57" width="24.14" height="24.14" fill="#9a9da2"/><polygon points="72.43,265.57 96.57000000000001,265.57 72.43,289.71" fill="#8a8d92"/><rect x="96.57" y="241.43" width="48.29" height="48.29" fill="#e1cbbe"/><rect x="96.57" y="241.43" width="48.29" height="48.29" fill="#ec8135"/><rect x="144.86" y="241.43" width="48.29" height="48.29" fill="#dcdfe4"/><path d="M 144.86 241.43 A 48.29 48.29 0 0 0 193.15 289.72 L 193.15 241.43" fill="#c9ccd1"/><rect x="193.14285714285714" y="241.42857142857142" width="48.285714285714285" height="48.285714285714285" fill="#DEE1E6"/><rect x="193.14" y="241.43" width="24.14" height="24.14" fill="#313439"/><polygon points="217.27999999999997,241.43 217.27999999999997,265.57 193.14,265.57" fill="#44474c"/><rect x="217.29" y="241.43" width="24.14" height="24.14" fill="#eb8841"/><polygon points="217.29,241.43 241.43,265.57 217.29,265.57" fill="#c8cbd0"/><rect x="193.14" y="265.57" width="24.14" height="24.14" fill="#e7a577"/><polygon points="193.14,265.57 217.27999999999997,265.57 193.14,289.71" fill="#696c71"/><rect x="217.29" y="265.57" width="24.14" height="24.14" fill="#e3c1ab"/><polygon points="217.29,265.57 241.43,265.57 241.43,289.71" fill="#ec8339"/><rect x="241.42857142857142" y="241.42857142857142" width="48.285714285714285" height="48.285714285714285" fill="#DEE1E6"/><rect x="241.43" y="241.43" width="24.14" height="24.14" fill="#ea9050"/><polygon points="265.57,241.43 265.57,265.57 241.43,265.57" fill="#595c61"/><rect x="265.57" y="241.43" width="24.14" height="24.14" fill="#1a1d22"/><polygon points="265.57,241.43 289.71,265.57 265.57,265.57" fill="#1b1e23"/><rect x="241.43" y="265.57" width="24.14" height="24.14" fill="#d4d7dc"/><polygon points="241.43,265.57 265.57,265.57 241.43,289.71" fill="#ec8237"/><rect x="265.57" y="265.57" width="24.14" height="24.14" fill="#bec1c6"/><polygon points="265.57,265.57 289.71,265.57 289.71,289.71" fill="#808388"/><rect x="289.7142857142857" y="241.42857142857142" width="48.285714285714285" height="48.285714285714285" fill="#DEE1E6"/><rect x="289.71" y="241.43" width="24.14" height="24.14" fill="#e0d4cd"/><polygon points="313.84999999999997,241.43 313.84999999999997,265.57 289.71,265.57" fill="#26292e"/><rect x="313.86" y="241.43" width="24.14" height="24.14" fill="#e1cec2"/><polygon points="313.86,241.43 338,265.57 313.86,265.57" fill="#c4c7cc"/><rect x="289.71" y="265.57" width="24.14" height="24.14" fill="#7a7d82"/><polygon points="289.71,265.57 313.84999999999997,265.57 289.71,289.71" fill="#8c8f94"/><rect x="313.86" y="265.57" width="24.14" height="24.14" fill="#a0a3a8"/><polygon points="313.86,265.57 338,265.57 338,289.71" fill="#8b8e93"/><rect x="338" y="241.43" width="48.29" height="48.29" fill="#e99b64"/><path d="M 338 289.72 A 48.29 48.29 0 0 1  386.29 241.43 L 338 289.72 A 48.29 48.29 0 0 0 386.29 241.43" fill="#e3bda3"/><rect x="386.29" y="241.43" width="48.29" height="48.29" fill="#34373c"/><rect x="386.29" y="241.43" width="48.29" height="48.29" fill="#e3c1aa"/><rect x="434.57" y="241.43" width="48.29" height="48.29" fill="#d4d7dc"/><rect x="434.57" y="241.43" width="48.29" height="48.29" fill="#c7cacf"/><rect x="0" y="289.7142857142857" width="48.285714285714285" height="48.285714285714285" fill="#DEE1E6"/><rect x="0" y="289.71" width="24.14" height="24.14" fill="#e89c65"/><path d="M 0 313.84999999999997 A 24.14 24.14 0 0 0 24.14 289.71 L 0 289.71" fill="#65686d"/><rect x="24.14" y="289.71" width="24.14" height="24.14" fill="#e2c7b6"/><path d="M 24.14 289.71 A 24.14 24.14 0 0 0 48.28 313.84999999999997 L 48.28 289.71" fill="#76797e"/><rect x="0" y="313.86" width="24.14" height="24.14" fill="#dfd8d6"/><path d="M 0 313.86 A 24.14 24.14 0 0 1 24.14 338 L 0 338" fill="#62656a"/><rect x="24.14" y="313.86" width="24.14" height="24.14" fill="#e89b65"/><path d="M 24.14 338 A 24.14 24.14 0 0 1  48.28 313.86 L 48.28 338" fill="#e4b798"/><rect x="48.29" y="289.71" width="48.29" height="48.29" fill="#e1ccbf"/><polygon points="48.29,289.71 96.58,289.71 48.29,338" fill="#686b70"/><rect x="96.57142857142857" y="289.7142857142857" width="48.285714285714285" height="48.285714285714285" fill="#DEE1E6"/><rect x="96.57" y="289.71" width="24.14" height="24.14" fill="#83868b"/><polygon points="120.71,289.71 120.71,313.84999999999997 96.57,313.84999999999997" fill="#e3c0a9"/><rect x="120.71" y="289.71" width="24.14" height="24.14" fill="#a6a9ae"/><polygon points="120.71,289.71 144.85,313.84999999999997 120.71,313.84999999999997" fill="#e5b18e"/><rect x="96.57" y="313.86" width="24.14" height="24.14" fill="#e3c0a8"/><polygon points="96.57,313.86 120.71,313.86 96.57,338" fill="#3b3e43"/><rect x="120.71" y="313.86" width="24.14" height="24.14" fill="#64676c"/><polygon points="120.71,313.86 144.85,313.86 144.85,338" fill="#484b50"/><rect x="144.86" y="289.71" width="48.29" height="48.29" fill="#515459"/><path d="M 144.86 338 A 48.29 48.29 0 0 1  193.15 289.71 L 144.86 338 A 48.29 48.29 0 0 0 193.15 289.71" fill="#eb8842"/><rect x="193.14" y="289.71" width="48.29" height="48.29" fill="#e99a63"/><polygon points="193.14,289.71 241.42999999999998,289.71 241.42999999999998,338" fill="#ec8135"/><rect x="241.43" y="289.71" width="48.29" height="48.29" fill="#86898e"/><polygon points="241.43,289.71 289.72,338 241.43,338" fill="#e3c0a9"/><rect x="289.7142857142857" y="289.7142857142857" width="48.285714285714285" height="48.285714285714285" fill="#DEE1E6"/><rect x="289.71" y="289.71" width="24.14" height="24.14" fill="#ec853c"/><polygon points="313.84999999999997,289.71 313.84999999999997,313.84999999999997 289.71,313.84999999999997" fill="#7f8287"/><rect x="313.86" y="289.71" width="24.14" height="24.14" fill="#9b9ea3"/><polygon points="313.86,289.71 338,289.71 313.86,313.84999999999997" fill="#e3bca2"/><rect x="289.71" y="313.86" width="24.14" height="24.14" fill="#34373c"/><polygon points="289.71,313.86 313.84999999999997,313.86 313.84999999999997,338" fill="#e89e6a"/><rect x="313.86" y="313.86" width="24.14" height="24.14" fill="#e4b99c"/><polygon points="313.86,313.86 338,338 313.86,338" fill="#ced1d6"/><rect x="338" y="289.7142857142857" width="48.285714285714285" height="48.285714285714285" fill="#DEE1E6"/><rect x="338" y="289.71" width="24.14" height="24.14" fill="#e99559"/><path d="M 338 313.84999999999997 A 24.14 24.14 0 0 1  362.14 289.71 L 362.14 313.84999999999997" fill="#c8cbd0"/><rect x="362.14" y="289.71" width="24.14" height="24.14" fill="#e3c0a9"/><path d="M 362.14 289.71 A 24.14 24.14 0 0 1 386.28 313.84999999999997 L 362.14 313.84999999999997" fill="#86898e"/><rect x="338" y="313.86" width="24.14" height="24.14" fill="#575a5f"/><path d="M 338 313.86 A 24.14 24.14 0 0 0 362.14 338 L 362.14 313.86" fill="#e1cec3"/><rect x="362.14" y="313.86" width="24.14" height="24.14" fill="#cfd2d7"/><path d="M 362.14 338 A 24.14 24.14 0 0 0 386.28 313.86 L 362.14 313.86" fill="#9c9fa4"/><rect x="386.2857142857143" y="289.7142857142857" width="48.285714285714285" height="48.285714285714285" fill="#DEE1E6"/><rect x="386.29" y="289.71" width="24.14" height="24.14" fill="#e6ac84"/><polygon points="410.43,289.71 410.43,313.84999999999997 386.29,313.84999999999997" fill="#d1d4d9"/><rect x="410.43" y="289.71" width="24.14" height="24.14" fill="#a3a6ab"/><polygon points="410.43,289.71 434.57,313.84999999999997 410.43,313.84999999999997" fill="#ea8e4c"/><rect x="386.29" y="313.86" width="24.14" height="24.14" fill="#e6aa80"/><polygon points="386.29,313.86 410.43,313.86 410.43,338" fill="#9a9da2"/><rect x="410.43" y="313.86" width="24.14" height="24.14" fill="#2d3035"/><polygon points="410.43,313.86 434.57,313.86 410.43,338" fill="#dfd8d4"/><rect x="434.57142857142856" y="289.7142857142857" width="48.285714285714285" height="48.285714285714285" fill="#DEE1E6"/><rect x="434.57" y="289.71" width="24.14" height="24.14" fill="#eb8a44"/><circle cx="446.64" cy="301.78" r="12.07" fill="#a9acb1"/><rect x="458.71" y="289.71" width="24.14" height="24.14" fill="#1a1d22"/><rect x="458.71" y="289.71" width="24.14" height="24.14" fill="#e0d4ce"/><rect x="434.57" y="313.86" width="24.14" height="24.14" fill="#afb2b7"/><circle cx="446.64" cy="325.93" r="12.07" fill="#54575c"/><rect x="458.71" y="313.86" width="24.14" height="24.14" fill="#26292e"/><rect x="458.71" y="313.86" width="24.14" height="24.14" fill="#dfdddf"/></g></svg>