<?xml version="1.0" standalone="no"?><svg xmlns:xlink="http://www.w3.org/1999/xlink" xmlns="http://www.w3.org/2000/svg" viewBox="0 0 1000 700.0058481501238" preserveAspectRatio="xMaxYMax slice"><g transform="scale(1.7721667041775286)"><rect x="0" y="0" width="564.2857142857143" height="395" fill="#DEE1E6"/><rect x="0" y="0" width="56.42857142857143" height="56.42857142857143" fill="#DEE1E6"/><rect x="0" y="0" width="28.21" height="28.21" fill="#171A1F"/><circle cx="14.105" cy="14.105" r="14.105" fill="#ED7D2D"/><rect x="28.21" y="0" width="28.21" height="28.21" fill="#171A1F"/><rect x="28.21" y="0" width="28.21" height="28.21" fill="#171A1F"/><rect x="0" y="28.21" width="28.21" height="28.21" fill="#ED7D2D"/><circle cx="14.105" cy="42.315" r="14.105" fill="#171A1F"/><rect x="28.21" y="28.21" width="28.21" height="28.21" fill="#ED7D2D"/><rect x="28.21" y="28.21" width="28.21" height="28.21" fill="#171A1F"/><rect x="56.42857142857143" y="0" width="56.42857142857143" height="56.42857142857143" fill="#DEE1E6"/><rect x="56.43" y="0" width="28.21" height="28.21" fill="#171A1F"/><circle cx="70.535" cy="14.105" r="14.105" fill="#ED7D2D"/><rect x="84.64" y="0" width="28.21" height="28.21" fill="#171A1F"/><rect x="84.64" y="0" width="28.21" height="28.21" fill="#171A1F"/><rect x="56.43" y="28.21" width="28.21" height="28.21" fill="#171A1F"/><circle cx="70.535" cy="42.315" r="14.105" fill="#171A1F"/><rect x="84.64" y="28.21" width="28.21" height="28.21" fill="#171A1F"/><rect x="84.64" y="28.21" width="28.21" height="28.21" fill="#171A1F"/><rect x="112.85714285714286" y="0" width="56.42857142857143" height="56.42857142857143" fill="#DEE1E6"/><rect x="112.86" y="0" width="28.21" height="28.21" fill="#171A1F"/><path d="M 112.86 0 A 28.21 28.21 0 0 0 141.07 28.21 L 141.07 0" fill="#171A1F"/><rect x="141.07" y="0" width="28.21" height="28.21" fill="#ED7D2D"/><path d="M 141.07 28.21 A 28.21 28.21 0 0 0 169.28 0 L 141.07 0" fill="#ED7D2D"/><rect x="112.86" y="28.21" width="28.21" height="28.21" fill="#ED7D2D"/><path d="M 112.86 56.42 A 28.21 28.21 0 0 1  141.07 28.21 L 141.07 56.42" fill="#171A1F"/><rect x="141.07" y="28.21" width="28.21" height="28.21" fill="#171A1F"/><path d="M 141.07 28.21 A 28.21 28.21 0 0 1 169.28 56.42 L 141.07 56.42" fill="#171A1F"/><rect x="169.28571428571428" y="0" width="56.42857142857143" height="56.42857142857143" fill="#DEE1E6"/><rect x="169.29" y="0" width="28.21" height="28.21" fill="#ED7D2D"/><polygon points="197.5,0 197.5,28.21 169.29,28.21" fill="#ED7D2D"/><rect x="197.5" y="0" width="28.21" height="28.21" fill="#ED7D2D"/><polygon points="197.5,0 225.71,28.21 197.5,28.21" fill="#171A1F"/><rect x="169.29" y="28.21" width="28.21" height="28.21" fill="#171A1F"/><polygon points="169.29,28.21 197.5,28.21 169.29,56.42" fill="#ED7D2D"/><rect x="197.5" y="28.21" width="28.21" height="28.21" fill="#ED7D2D"/><polygon points="197.5,28.21 225.71,28.21 225.71,56.42" fill="#171A1F"/><rect x="225.71428571428572" y="0" width="56.42857142857143" height="56.42857142857143" fill="#DEE1E6"/><rect x="225.71" y="0" width="28.21" height="28.21" fill="#ED7D2D"/><path d="M 225.71 28.21 A 28.21 28.21 0 0 1  253.92000000000002 0 L 253.92000000000002 28.21" fill="#171A1F"/><rect x="253.93" y="0" width="28.21" height="28.21" fill="#ED7D2D"/><path d="M 253.93 0 A 28.21 28.21 0 0 1 282.14 28.21 L 253.93 28.21" fill="#ED7D2D"/><rect x="225.71" y="28.21" width="28.21" height="28.21" fill="#171A1F"/><path d="M 225.71 28.21 A 28.21 28.21 0 0 0 253.92000000000002 56.42 L 253.92000000000002 28.21" fill="#171A1F"/><rect x="253.93" y="28.21" width="28.21" height="28.21" fill="#171A1F"/><path d="M 253.93 56.42 A 28.21 28.21 0 0 0 282.14 28.21 L 253.93 28.21" fill="#171A1F"/><rect x="282.14" y="0" width="56.43" height="56.43" fill="#ED7D2D"/><rect x="282.14" y="0" width="56.43" height="56.43" fill="#171A1F"/><rect x="338.57" y="0" width="56.43" height="56.43" fill="#ED7D2D"/><path d="M 338.57 0 A 56.43 56.43 0 0 1 395 56.43 L 338.57 56.43" fill="#ED7D2D"/><rect x="395" y="0" width="56.42857142857143" height="56.42857142857143" fill="#DEE1E6"/><rect x="395" y="0" width="28.21" height="28.21" fill="#ED7D2D"/><path d="M 395 0 A 28.21 28.21 0 0 1 423.21 28.21 L 395 28.21" fill="#ED7D2D"/><rect x="423.21" y="0" width="28.21" height="28.21" fill="#171A1F"/><path d="M 423.21 28.21 A 28.21 28.21 0 0 1  451.41999999999996 0 L 451.41999999999996 28.21" fill="#171A1F"/><rect x="395" y="28.21" width="28.21" height="28.21" fill="#171A1F"/><path d="M 395 56.42 A 28.21 28.21 0 0 0 423.21 28.21 L 395 28.21" fill="#ED7D2D"/><rect x="423.21" y="28.21" width="28.21" height="28.21" fill="#171A1F"/><path d="M 423.21 28.21 A 28.21 28.21 0 0 0 451.41999999999996 56.42 L 451.41999999999996 28.21" fill="#171A1F"/><rect x="451.43" y="0" width="56.43" height="56.43" fill="#ED7D2D"/><rect x="451.43" y="0" width="56.43" height="56.43" fill="#ED7D2D"/><rect x="507.8571428571429" y="0" width="56.42857142857143" height="56.42857142857143" fill="#DEE1E6"/><rect x="507.86" y="0" width="28.21" height="28.21" fill="#ED7D2D"/><polygon points="536.07,0 536.07,28.21 507.86,28.21" fill="#ED7D2D"/><rect x="536.07" y="0" width="28.21" height="28.21" fill="#171A1F"/><polygon points="536.07,0 564.2800000000001,28.21 536.07,28.21" fill="#ED7D2D"/><rect x="507.86" y="28.21" width="28.21" height="28.21" fill="#ED7D2D"/><polygon points="507.86,28.21 536.07,28.21 536.07,56.42" fill="#171A1F"/><rect x="536.07" y="28.21" width="28.21" height="28.21" fill="#171A1F"/><polygon points="536.07,28.21 564.2800000000001,28.21 536.07,56.42" fill="#171A1F"/><rect x="0" y="56.43" width="56.43" height="56.43" fill="#ED7D2D"/><polygon points="0,56.43 56.43,56.43 0,112.86" fill="#ED7D2D"/><rect x="56.42857142857143" y="56.42857142857143" width="56.42857142857143" height="56.42857142857143" fill="#DEE1E6"/><rect x="56.43" y="56.43" width="28.21" height="28.21" fill="#ED7D2D"/><path d="M 56.43 84.64 A 28.21 28.21 0 0 1  84.64 56.43 L 84.64 84.64" fill="#171A1F"/><rect x="84.64" y="56.43" width="28.21" height="28.21" fill="#171A1F"/><path d="M 84.64 56.43 A 28.21 28.21 0 0 1 112.85 84.64 L 84.64 84.64" fill="#171A1F"/><rect x="56.43" y="84.64" width="28.21" height="28.21" fill="#ED7D2D"/><path d="M 56.43 84.64 A 28.21 28.21 0 0 0 84.64 112.85 L 84.64 84.64" fill="#171A1F"/><rect x="84.64" y="84.64" width="28.21" height="28.21" fill="#ED7D2D"/><path d="M 84.64 112.85 A 28.21 28.21 0 0 0 112.85 84.64 L 84.64 84.64" fill="#ED7D2D"/><rect x="112.85714285714286" y="56.42857142857143" width="56.42857142857143" height="56.42857142857143" fill="#DEE1E6"/><rect x="112.86" y="56.43" width="28.21" height="28.21" fill="#171A1F"/><path d="M 112.86 56.43 A 28.21 28.21 0 0 1 141.07 84.64 L 112.86 84.64" fill="#171A1F"/><rect x="141.07" y="56.43" width="28.21" height="28.21" fill="#ED7D2D"/><path d="M 141.07 84.64 A 28.21 28.21 0 0 1  169.28 56.43 L 169.28 84.64" fill="#171A1F"/><rect x="112.86" y="84.64" width="28.21" height="28.21" fill="#ED7D2D"/><path d="M 112.86 112.85 A 28.21 28.21 0 0 0 141.07 84.64 L 112.86 84.64" fill="#171A1F"/><rect x="141.07" y="84.64" width="28.21" height="28.21" fill="#ED7D2D"/><path d="M 141.07 84.64 A 28.21 28.21 0 0 0 169.28 112.85 L 169.28 84.64" fill="#ED7D2D"/><rect x="169.29" y="56.43" width="56.43" height="56.43" fill="#171A1F"/><path d="M 169.29 112.86 A 56.43 56.43 0 0 1  225.72 56.43 L 225.72 112.86" fill="#171A1F"/><rect x="225.71" y="56.43" width="56.43" height="56.43" fill="#ED7D2D"/><rect x="225.71" y="56.43" width="56.43" height="56.43" fill="#ED7D2D"/><rect x="282.14" y="56.43" width="56.43" height="56.43" fill="#ED7D2D"/><rect x="282.14" y="56.43" width="56.43" height="56.43" fill="#171A1F"/><rect x="338.57142857142856" y="56.42857142857143" width="56.42857142857143" height="56.42857142857143" fill="#DEE1E6"/><rect x="338.57" y="56.43" width="28.21" height="28.21" fill="#ED7D2D"/><path d="M 338.57 56.43 A 28.21 28.21 0 0 1 366.78 84.64 L 338.57 84.64" fill="#171A1F"/><rect x="366.79" y="56.43" width="28.21" height="28.21" fill="#171A1F"/><path d="M 366.79 84.64 A 28.21 28.21 0 0 1  395 56.43 L 395 84.64" fill="#ED7D2D"/><rect x="338.57" y="84.64" width="28.21" height="28.21" fill="#171A1F"/><path d="M 338.57 112.85 A 28.21 28.21 0 0 0 366.78 84.64 L 338.57 84.64" fill="#171A1F"/><rect x="366.79" y="84.64" width="28.21" height="28.21" fill="#171A1F"/><path d="M 366.79 84.64 A 28.21 28.21 0 0 0 395 112.85 L 395 84.64" fill="#171A1F"/><rect x="395" y="56.43" width="56.43" height="56.43" fill="#ED7D2D"/><polygon points="395,56.43 451.43,112.86 395,112.86" fill="#171A1F"/><rect x="451.43" y="56.43" width="56.43" height="56.43" fill="#ED7D2D"/><polygon points="507.86,56.43 507.86,112.86 451.43,112.86" fill="#ED7D2D"/><rect x="507.86" y="56.43" width="56.43" height="56.43" fill="#171A1F"/><path d="M 507.86 112.86 A 56.43 56.43 0 0 0 564.29 56.43 L 507.86 56.43" fill="#ED7D2D"/><rect x="0" y="112.85714285714286" width="56.42857142857143" height="56.42857142857143" fill="#DEE1E6"/><rect x="0" y="112.86" width="28.21" height="28.21" fill="#ED7D2D"/><polygon points="28.21,112.86 28.21,141.07 0,141.07" fill="#ED7D2D"/><rect x="28.21" y="112.86" width="28.21" height="28.21" fill="#171A1F"/><polygon points="28.21,112.86 56.42,141.07 28.21,141.07" fill="#171A1F"/><rect x="0" y="141.07" width="28.21" height="28.21" fill="#171A1F"/><polygon points="0,141.07 28.21,141.07 28.21,169.28" fill="#ED7D2D"/><rect x="28.21" y="141.07" width="28.21" height="28.21" fill="#171A1F"/><polygon points="28.21,141.07 56.42,141.07 28.21,169.28" fill="#171A1F"/><rect x="56.43" y="112.86" width="56.43" height="56.43" fill="#ED7D2D"/><path d="M 56.43 112.86 A 56.43 56.43 0 0 1  112.86 169.29 L 56.43 112.86 A 56.43 56.43 0 0 0 112.86 169.29" fill="#171A1F"/><rect x="112.86" y="112.86" width="56.43" height="56.43" fill="#171A1F"/><polygon points="112.86,112.86 169.29,169.29 112.86,169.29" fill="#ED7D2D"/><rect x="169.28571428571428" y="112.85714285714286" width="56.42857142857143" height="56.42857142857143" fill="#DEE1E6"/><rect x="169.29" y="112.86" width="28.21" height="28.21" fill="#171A1F"/><path d="M 169.29 112.86 A 28.21 28.21 0 0 1 197.5 141.07 L 169.29 141.07" fill="#ED7D2D"/><rect x="197.5" y="112.86" width="28.21" height="28.21" fill="#171A1F"/><path d="M 197.5 141.07 A 28.21 28.21 0 0 1  225.71 112.86 L 225.71 141.07" fill="#ED7D2D"/><rect x="169.29" y="141.07" width="28.21" height="28.21" fill="#171A1F"/><path d="M 169.29 169.28 A 28.21 28.21 0 0 0 197.5 141.07 L 169.29 141.07" fill="#171A1F"/><rect x="197.5" y="141.07" width="28.21" height="28.21" fill="#171A1F"/><path d="M 197.5 141.07 A 28.21 28.21 0 0 0 225.71 169.28 L 225.71 141.07" fill="#171A1F"/><rect x="225.71428571428572" y="112.85714285714286" width="56.42857142857143" height="56.42857142857143" fill="#DEE1E6"/><rect x="225.71" y="112.86" width="28.21" height="28.21" fill="#171A1F"/><polygon points="253.92000000000002,112.86 253.92000000000002,141.07 225.71,141.07" fill="#ED7D2D"/><rect x="253.93" y="112.86" width="28.21" height="28.21" fill="#171A1F"/><polygon points="253.93,112.86 282.14,112.86 253.93,141.07" fill="#171A1F"/><rect x="225.71" y="141.07" width="28.21" height="28.21" fill="#171A1F"/><polygon points="225.71,141.07 253.92000000000002,141.07 253.92000000000002,169.28" fill="#171A1F"/><rect x="253.93" y="141.07" width="28.21" height="28.21" fill="#171A1F"/><polygon points="253.93,141.07 282.14,169.28 253.93,169.28" fill="#ED7D2D"/><rect x="282.14" y="112.86" width="56.43" height="56.43" fill="#ED7D2D"/><rect x="282.14" y="112.86" width="56.43" height="56.43" fill="#171A1F"/><rect x="338.57" y="112.86" width="56.43" height="56.43" fill="#171A1F"/><path d="M 338.57 169.29 A 56.43 56.43 0 0 1  395 112.86 L 395 169.29" fill="#171A1F"/><rect x="395" y="112.86" width="56.43" height="56.43" fill="#ED7D2D"/><polygon points="395,112.86 451.43,112.86 395,169.29" fill="#171A1F"/><rect x="451.42857142857144" y="112.85714285714286" width="56.42857142857143" height="56.42857142857143" fill="#DEE1E6"/><rect x="451.43" y="112.86" width="28.21" height="28.21" fill="#ED7D2D"/><polygon points="479.64,112.86 479.64,141.07 451.43,141.07" fill="#ED7D2D"/><rect x="479.64" y="112.86" width="28.21" height="28.21" fill="#171A1F"/><polygon points="479.64,112.86 507.84999999999997,112.86 479.64,141.07" fill="#ED7D2D"/><rect x="451.43" y="141.07" width="28.21" height="28.21" fill="#ED7D2D"/><polygon points="451.43,141.07 479.64,141.07 479.64,169.28" fill="#ED7D2D"/><rect x="479.64" y="141.07" width="28.21" height="28.21" fill="#ED7D2D"/><polygon points="479.64,141.07 507.84999999999997,169.28 479.64,169.28" fill="#171A1F"/><rect x="507.8571428571429" y="112.85714285714286" width="56.42857142857143" height="56.42857142857143" fill="#DEE1E6"/><rect x="507.86" y="112.86" width="28.21" height="28.21" fill="#171A1F"/><path d="M 507.86 141.07 A 28.21 28.21 0 0 1 536.07 112.86 L 536.07 119.9125 A 21.1575 21.1575 0 0 0 514.9125 141.07" fill="#171A1F"/><rect x="536.07" y="112.86" width="28.21" height="28.21" fill="#ED7D2D"/><path d="M 536.07 112.86 A 28.21 28.21 0 0 1 564.2800000000001 141.07 L 557.2275000000001 141.07 A 21.1575 21.1575 0 0 0 536.07 119.9125" fill="#ED7D2D"/><rect x="507.86" y="141.07" width="28.21" height="28.21" fill="#ED7D2D"/><path d="M 507.86 141.07 A 28.21 28.21 0 0 0 536.07 169.28 L 536.07 162.2275 A 21.1575 21.1575 0 0 1 514.9125 141.07" fill="#ED7D2D"/><rect x="536.07" y="141.07" width="28.21" height="28.21" fill="#171A1F"/><path d="M 536.07 169.28 A 28.21 28.21 0 0 0 564.2800000000001 141.07 L 557.2275000000001 141.07 A 21.1575 21.1575 0 0 1 536.07 162.2275" fill="#ED7D2D"/><rect x="0" y="169.28571428571428" width="56.42857142857143" height="56.42857142857143" fill="#DEE1E6"/><rect x="0" y="169.29" width="28.21" height="28.21" fill="#ED7D2D"/><path d="M 0 169.29 A 28.21 28.21 0 0 1 28.21 197.5 L 0 197.5" fill="#171A1F"/><rect x="28.21" y="169.29" width="28.21" height="28.21" fill="#171A1F"/><path d="M 28.21 197.5 A 28.21 28.21 0 0 1  56.42 169.29 L 56.42 197.5" fill="#ED7D2D"/><rect x="0" y="197.5" width="28.21" height="28.21" fill="#171A1F"/><path d="M 0 225.71 A 28.21 28.21 0 0 0 28.21 197.5 L 0 197.5" fill="#171A1F"/><rect x="28.21" y="197.5" width="28.21" height="28.21" fill="#ED7D2D"/><path d="M 28.21 197.5 A 28.21 28.21 0 0 0 56.42 225.71 L 56.42 197.5" fill="#171A1F"/><rect x="56.43" y="169.29" width="56.43" height="56.43" fill="#ED7D2D"/><rect x="56.43" y="169.29" width="56.43" height="56.43" fill="#ED7D2D"/><rect x="112.86" y="169.29" width="56.43" height="56.43" fill="#171A1F"/><polygon points="169.29,169.29 169.29,225.72 112.86,225.72" fill="#171A1F"/><rect x="169.29" y="169.29" width="56.43" height="56.43" fill="#ED7D2D"/><rect x="169.29" y="169.29" width="56.43" height="56.43" fill="#171A1F"/><rect x="225.71" y="169.29" width="56.43" height="56.43" fill="#ED7D2D"/><polygon points="225.71,169.29 282.14,169.29 225.71,225.72" fill="#ED7D2D"/><rect x="282.14285714285717" y="169.28571428571428" width="56.42857142857143" height="56.42857142857143" fill="#DEE1E6"/><rect x="282.14" y="169.29" width="28.21" height="28.21" fill="#171A1F"/><path d="M 282.14 197.5 A 28.21 28.21 0 0 0 310.34999999999997 169.29 L 282.14 169.29" fill="#ED7D2D"/><rect x="310.36" y="169.29" width="28.21" height="28.21" fill="#ED7D2D"/><path d="M 310.36 169.29 A 28.21 28.21 0 0 0 338.57 197.5 L 338.57 169.29" fill="#171A1F"/><rect x="282.14" y="197.5" width="28.21" height="28.21" fill="#ED7D2D"/><path d="M 282.14 197.5 A 28.21 28.21 0 0 1 310.34999999999997 225.71 L 282.14 225.71" fill="#171A1F"/><rect x="310.36" y="197.5" width="28.21" height="28.21" fill="#ED7D2D"/><path d="M 310.36 225.71 A 28.21 28.21 0 0 1  338.57 197.5 L 338.57 225.71" fill="#ED7D2D"/><rect x="338.57" y="169.29" width="56.43" height="56.43" fill="#171A1F"/><polygon points="395,169.29 395,225.72 338.57,225.72" fill="#171A1F"/><rect x="395" y="169.28571428571428" width="56.42857142857143" height="56.42857142857143" fill="#DEE1E6"/><rect x="395" y="169.29" width="28.21" height="28.21" fill="#171A1F"/><polygon points="423.21,169.29 423.21,197.5 395,197.5" fill="#ED7D2D"/><rect x="423.21" y="169.29" width="28.21" height="28.21" fill="#ED7D2D"/><polygon points="423.21,169.29 451.41999999999996,169.29 423.21,197.5" fill="#ED7D2D"/><rect x="395" y="197.5" width="28.21" height="28.21" fill="#ED7D2D"/><polygon points="395,197.5 423.21,197.5 423.21,225.71" fill="#171A1F"/><rect x="423.21" y="197.5" width="28.21" height="28.21" fill="#ED7D2D"/><polygon points="423.21,197.5 451.41999999999996,225.71 423.21,225.71" fill="#171A1F"/><rect x="451.43" y="169.29" width="56.43" height="56.43" fill="#171A1F"/><path d="M 451.43 225.72 A 56.43 56.43 0 0 1  507.86 169.29 L 451.43 225.72 A 56.43 56.43 0 0 0 507.86 169.29" fill="#171A1F"/><rect x="507.86" y="169.29" width="56.43" height="56.43" fill="#ED7D2D"/><polygon points="564.29,169.29 564.29,225.72 507.86,225.72" fill="#171A1F"/><rect x="0" y="225.71" width="56.43" height="56.43" fill="#171A1F"/><path d="M 0 225.71 A 56.43 56.43 0 0 0 56.43 282.14 L 56.43 225.71" fill="#ED7D2D"/><rect x="56.42857142857143" y="225.71428571428572" width="56.42857142857143" height="56.42857142857143" fill="#DEE1E6"/><rect x="56.43" y="225.71" width="28.21" height="28.21" fill="#ED7D2D"/><polygon points="84.64,225.71 84.64,253.92000000000002 56.43,253.92000000000002" fill="#ED7D2D"/><rect x="84.64" y="225.71" width="28.21" height="28.21" fill="#ED7D2D"/><polygon points="84.64,225.71 112.85,253.92000000000002 84.64,253.92000000000002" fill="#ED7D2D"/><rect x="56.43" y="253.93" width="28.21" height="28.21" fill="#171A1F"/><polygon points="56.43,253.93 84.64,253.93 84.64,282.14" fill="#171A1F"/><rect x="84.64" y="253.93" width="28.21" height="28.21" fill="#ED7D2D"/><polygon points="84.64,253.93 112.85,253.93 84.64,282.14" fill="#171A1F"/><rect x="112.86" y="225.71" width="56.43" height="56.43" fill="#171A1F"/><rect x="112.86" y="225.71" width="56.43" height="56.43" fill="#ED7D2D"/><rect x="169.28571428571428" y="225.71428571428572" width="56.42857142857143" height="56.42857142857143" fill="#DEE1E6"/><rect x="169.29" y="225.71" width="28.21" height="28.21" fill="#171A1F"/><path d="M 169.29 225.71 A 28.21 28.21 0 0 1 197.5 253.92000000000002 L 169.29 253.92000000000002" fill="#ED7D2D"/><rect x="197.5" y="225.71" width="28.21" height="28.21" fill="#ED7D2D"/><path d="M 197.5 253.92000000000002 A 28.21 28.21 0 0 1  225.71 225.71 L 225.71 253.92000000000002" fill="#171A1F"/><rect x="169.29" y="253.93" width="28.21" height="28.21" fill="#171A1F"/><path d="M 169.29 282.14 A 28.21 28.21 0 0 0 197.5 253.93 L 169.29 253.93" fill="#171A1F"/><rect x="197.5" y="253.93" width="28.21" height="28.21" fill="#ED7D2D"/><path d="M 197.5 253.93 A 28.21 28.21 0 0 0 225.71 282.14 L 225.71 253.93" fill="#171A1F"/><rect x="225.71428571428572" y="225.71428571428572" width="56.42857142857143" height="56.42857142857143" fill="#DEE1E6"/><rect x="225.71" y="225.71" width="28.21" height="28.21" fill="#171A1F"/><path d="M 225.71 253.92000000000002 A 28.21 28.21 0 0 1 253.92000000000002 225.71 L 253.92000000000002 232.76250000000002 A 21.1575 21.1575 0 0 0 232.76250000000002 253.92000000000002" fill="#ED7D2D"/><rect x="253.93" y="225.71" width="28.21" height="28.21" fill="#171A1F"/><path d="M 253.93 225.71 A 28.21 28.21 0 0 1 282.14 253.92000000000002 L 275.0875 253.92000000000002 A 21.1575 21.1575 0 0 0 253.93 232.76250000000002" fill="#171A1F"/><rect x="225.71" y="253.93" width="28.21" height="28.21" fill="#171A1F"/><path d="M 225.71 253.93 A 28.21 28.21 0 0 0 253.92000000000002 282.14 L 253.92000000000002 275.0875 A 21.1575 21.1575 0 0 1 232.76250000000002 253.93" fill="#ED7D2D"/><rect x="253.93" y="253.93" width="28.21" height="28.21" fill="#ED7D2D"/><path d="M 253.93 282.14 A 28.21 28.21 0 0 0 282.14 253.93 L 275.0875 253.93 A 21.1575 21.1575 0 0 1 253.93 275.0875" fill="#ED7D2D"/><rect x="282.14" y="225.71" width="56.43" height="56.43" fill="#ED7D2D"/><rect x="282.14" y="225.71" width="56.43" height="56.43" fill="#171A1F"/><rect x="338.57" y="225.71" width="56.43" height="56.43" fill="#171A1F"/><rect x="338.57" y="225.71" width="56.43" height="56.43" fill="#ED7D2D"/><rect x="395" y="225.71" width="56.43" height="56.43" fill="#ED7D2D"/><rect x="395" y="225.71" width="56.43" height="56.43" fill="#171A1F"/><rect x="451.42857142857144" y="225.71428571428572" width="56.42857142857143" height="56.42857142857143" fill="#DEE1E6"/><rect x="451.43" y="225.71" width="28.21" height="28.21" fill="#ED7D2D"/><polygon points="479.64,225.71 479.64,253.92000000000002 451.43,253.92000000000002" fill="#ED7D2D"/><rect x="479.64" y="225.71" width="28.21" height="28.21" fill="#ED7D2D"/><polygon points="479.64,225.71 507.84999999999997,225.71 479.64,253.92000000000002" fill="#ED7D2D"/><rect x="451.43" y="253.93" width="28.21" height="28.21" fill="#ED7D2D"/><polygon points="451.43,253.93 479.64,253.93 479.64,282.14" fill="#ED7D2D"/><rect x="479.64" y="253.93" width="28.21" height="28.21" fill="#171A1F"/><polygon points="479.64,253.93 507.84999999999997,282.14 479.64,282.14" fill="#ED7D2D"/><rect x="507.8571428571429" y="225.71428571428572" width="56.42857142857143" height="56.42857142857143" fill="#DEE1E6"/><rect x="507.86" y="225.71" width="28.21" height="28.21" fill="#ED7D2D"/><circle cx="521.965" cy="239.815" r="14.105" fill="#ED7D2D"/><rect x="536.07" y="225.71" width="28.21" height="28.21" fill="#ED7D2D"/><rect x="536.07" y="225.71" width="28.21" height="28.21" fill="#171A1F"/><rect x="507.86" y="253.93" width="28.21" height="28.21" fill="#171A1F"/><circle cx="521.965" cy="268.035" r="14.105" fill="#ED7D2D"/><rect x="536.07" y="253.93" width="28.21" height="28.21" fill="#171A1F"/><rect x="536.07" y="253.93" width="28.21" height="28.21" fill="#ED7D2D"/><rect x="0" y="282.14" width="56.43" height="56.43" fill="#ED7D2D"/><polygon points="0,282.14 56.43,338.57 0,338.57" fill="#ED7D2D"/><rect x="56.43" y="282.14" width="56.43" height="56.43" fill="#171A1F"/><polygon points="56.43,282.14 112.86,282.14 56.43,338.57" fill="#ED7D2D"/><rect x="112.86" y="282.14" width="56.43" height="56.43" fill="#ED7D2D"/><path d="M 112.86 338.57 A 56.43 56.43 0 0 0 169.29 282.14 L 112.86 282.14" fill="#ED7D2D"/><rect x="169.29" y="282.14" width="56.43" height="56.43" fill="#ED7D2D"/><polygon points="169.29,282.14 225.72,338.57 169.29,338.57" fill="#171A1F"/><rect x="225.71428571428572" y="282.14285714285717" width="56.42857142857143" height="56.42857142857143" fill="#DEE1E6"/><rect x="225.71" y="282.14" width="28.21" height="28.21" fill="#171A1F"/><circle cx="239.815" cy="296.245" r="14.105" fill="#171A1F"/><rect x="253.93" y="282.14" width="28.21" height="28.21" fill="#171A1F"/><rect x="253.93" y="282.14" width="28.21" height="28.21" fill="#171A1F"/><rect x="225.71" y="310.36" width="28.21" height="28.21" fill="#171A1F"/><circle cx="239.815" cy="324.46500000000003" r="14.105" fill="#171A1F"/><rect x="253.93" y="310.36" width="28.21" height="28.21" fill="#171A1F"/><rect x="253.93" y="310.36" width="28.21" height="28.21" fill="#ED7D2D"/><rect x="282.14" y="282.14" width="56.43" height="56.43" fill="#171A1F"/><path d="M 282.14 282.14 A 56.43 56.43 0 0 1 338.57 338.57 L 282.14 338.57" fill="#ED7D2D"/><rect x="338.57" y="282.14" width="56.43" height="56.43" fill="#ED7D2D"/><polygon points="338.57,282.14 395,282.14 338.57,338.57" fill="#171A1F"/><rect x="395" y="282.14285714285717" width="56.42857142857143" height="56.42857142857143" fill="#DEE1E6"/><rect x="395" y="282.14" width="28.21" height="28.21" fill="#ED7D2D"/><polygon points="423.21,282.14 423.21,310.34999999999997 395,310.34999999999997" fill="#ED7D2D"/><rect x="423.21" y="282.14" width="28.21" height="28.21" fill="#171A1F"/><polygon points="423.21,282.14 451.41999999999996,282.14 423.21,310.34999999999997" fill="#ED7D2D"/><rect x="395" y="310.36" width="28.21" height="28.21" fill="#171A1F"/><polygon points="395,310.36 423.21,310.36 423.21,338.57" fill="#171A1F"/><rect x="423.21" y="310.36" width="28.21" height="28.21" fill="#171A1F"/><polygon points="423.21,310.36 451.41999999999996,338.57 423.21,338.57" fill="#171A1F"/><rect x="451.42857142857144" y="282.14285714285717" width="56.42857142857143" height="56.42857142857143" fill="#DEE1E6"/><rect x="451.43" y="282.14" width="28.21" height="28.21" fill="#ED7D2D"/><polygon points="479.64,282.14 479.64,310.34999999999997 451.43,310.34999999999997" fill="#ED7D2D"/><rect x="479.64" y="282.14" width="28.21" height="28.21" fill="#ED7D2D"/><polygon points="479.64,282.14 507.84999999999997,310.34999999999997 479.64,310.34999999999997" fill="#ED7D2D"/><rect x="451.43" y="310.36" width="28.21" height="28.21" fill="#ED7D2D"/><polygon points="451.43,310.36 479.64,310.36 479.64,338.57" fill="#ED7D2D"/><rect x="479.64" y="310.36" width="28.21" height="28.21" fill="#ED7D2D"/><polygon points="479.64,310.36 507.84999999999997,310.36 479.64,338.57" fill="#ED7D2D"/><rect x="507.8571428571429" y="282.14285714285717" width="56.42857142857143" height="56.42857142857143" fill="#DEE1E6"/><rect x="507.86" y="282.14" width="28.21" height="28.21" fill="#ED7D2D"/><polygon points="536.07,282.14 536.07,310.34999999999997 507.86,310.34999999999997" fill="#ED7D2D"/><rect x="536.07" y="282.14" width="28.21" height="28.21" fill="#ED7D2D"/><polygon points="536.07,282.14 564.2800000000001,282.14 536.07,310.34999999999997" fill="#171A1F"/><rect x="507.86" y="310.36" width="28.21" height="28.21" fill="#ED7D2D"/><polygon points="507.86,310.36 536.07,310.36 536.07,338.57" fill="#171A1F"/><rect x="536.07" y="310.36" width="28.21" height="28.21" fill="#171A1F"/><polygon points="536.07,310.36 564.2800000000001,338.57 536.07,338.57" fill="#ED7D2D"/><rect x="0" y="338.57" width="56.43" height="56.43" fill="#171A1F"/><rect x="0" y="338.57" width="56.43" height="56.43" fill="#171A1F"/><rect x="56.43" y="338.57" width="56.43" height="56.43" fill="#ED7D2D"/><rect x="56.43" y="338.57" width="56.43" height="56.43" fill="#171A1F"/><rect x="112.85714285714286" y="338.57142857142856" width="56.42857142857143" height="56.42857142857143" fill="#DEE1E6"/><rect x="112.86" y="338.57" width="28.21" height="28.21" fill="#ED7D2D"/><path d="M 112.86 338.57 A 28.21 28.21 0 0 1 141.07 366.78 L 112.86 366.78" fill="#171A1F"/><rect x="141.07" y="338.57" width="28.21" height="28.21" fill="#ED7D2D"/><path d="M 141.07 366.78 A 28.21 28.21 0 0 1  169.28 338.57 L 169.28 366.78" fill="#ED7D2D"/><rect x="112.86" y="366.79" width="28.21" height="28.21" fill="#ED7D2D"/><path d="M 112.86 395 A 28.21 28.21 0 0 0 141.07 366.79 L 112.86 366.79" fill="#ED7D2D"/><rect x="141.07" y="366.79" width="28.21" height="28.21" fill="#171A1F"/><path d="M 141.07 366.79 A 28.21 28.21 0 0 0 169.28 395 L 169.28 366.79" fill="#171A1F"/><rect x="169.29" y="338.57" width="56.43" height="56.43" fill="#171A1F"/><polygon points="169.29,338.57 225.72,395 169.29,395" fill="#171A1F"/><rect x="225.71" y="338.57" width="56.43" height="56.43" fill="#171A1F"/><polygon points="282.14,338.57 282.14,395 225.71,395" fill="#171A1F"/><rect x="282.14" y="338.57" width="56.43" height="56.43" fill="#171A1F"/><rect x="282.14" y="338.57" width="56.43" height="56.43" fill="#ED7D2D"/><rect x="338.57142857142856" y="338.57142857142856" width="56.42857142857143" height="56.42857142857143" fill="#DEE1E6"/><rect x="338.57" y="338.57" width="28.21" height="28.21" fill="#ED7D2D"/><polygon points="366.78,338.57 366.78,366.78 338.57,366.78" fill="#ED7D2D"/><rect x="366.79" y="338.57" width="28.21" height="28.21" fill="#ED7D2D"/><polygon points="366.79,338.57 395,338.57 366.79,366.78" fill="#171A1F"/><rect x="338.57" y="366.79" width="28.21" height="28.21" fill="#ED7D2D"/><polygon points="338.57,366.79 366.78,366.79 366.78,395" fill="#171A1F"/><rect x="366.79" y="366.79" width="28.21" height="28.21" fill="#171A1F"/><polygon points="366.79,366.79 395,395 366.79,395" fill="#ED7D2D"/><rect x="395" y="338.57142857142856" width="56.42857142857143" height="56.42857142857143" fill="#DEE1E6"/><rect x="395" y="338.57" width="28.21" height="28.21" fill="#171A1F"/><polygon points="423.21,338.57 423.21,366.78 395,366.78" fill="#171A1F"/><rect x="423.21" y="338.57" width="28.21" height="28.21" fill="#ED7D2D"/><polygon points="423.21,338.57 451.41999999999996,338.57 423.21,366.78" fill="#ED7D2D"/><rect x="395" y="366.79" width="28.21" height="28.21" fill="#171A1F"/><polygon points="395,366.79 423.21,366.79 423.21,395" fill="#ED7D2D"/><rect x="423.21" y="366.79" width="28.21" height="28.21" fill="#171A1F"/><polygon points="423.21,366.79 451.41999999999996,395 423.21,395" fill="#171A1F"/><rect x="451.43" y="338.57" width="56.43" height="56.43" fill="#ED7D2D"/><polygon points="451.43,338.57 507.86,338.57 451.43,395" fill="#171A1F"/><rect x="507.86" y="338.57" width="56.43" height="56.43" fill="#171A1F"/><polygon points="507.86,338.57 564.29,395 507.86,395" fill="#171A1F"/></g></svg>