<svg id="Capa_1" data-name="Capa 1" xmlns="http://www.w3.org/2000/svg" viewBox="0 0 95.14 95.14"><defs><style>.cls-1{fill:#9095a0;}.cls-2{fill:none;stroke:#fff;stroke-miterlimit:10;stroke-width:4.5px;}</style></defs><circle class="cls-1" cx="47.87" cy="47.57" r="47.57"/><path class="cls-2" d="M78.66,62.92v9.29a6.2,6.2,0,0,1-6.17,6.22,5.63,5.63,0,0,1-.58,0,61.24,61.24,0,0,1-26.72-9.5A60.47,60.47,0,0,1,26.6,50.32a61.26,61.26,0,0,1-9.5-26.85,6.19,6.19,0,0,1,5.61-6.73,5.07,5.07,0,0,1,.55,0h9.29A6.19,6.19,0,0,1,38.74,22a40.16,40.16,0,0,0,2.17,8.7,6.2,6.2,0,0,1-1.39,6.54l-3.93,3.93A49.47,49.47,0,0,0,54.17,59.79l3.93-3.93a6.19,6.19,0,0,1,6.53-1.4,39.54,39.54,0,0,0,8.71,2.17A6.2,6.2,0,0,1,78.66,62.92Z"/></svg>