<svg id="Capa_1" data-name="Capa 1" xmlns="http://www.w3.org/2000/svg" viewBox="0 0 95.14 95.14"><defs><style>.cls-1{fill:#ef9834;}.cls-2{fill:#fefcfb;}.cls-3{fill:#ee9936;}.cls-4{fill:#fefdfc;}</style></defs><circle class="cls-1" cx="47.87" cy="47.57" r="47.57"/><path class="cls-2" d="M18.86,76.23c.9-3.36,1.73-6.44,2.57-9.52a3,3,0,0,1,.12-.4A10.32,10.32,0,0,0,21.2,58C16,45.72,20.33,31.77,31.47,23.9a28.28,28.28,0,0,1,35,2.36c9.33,8.38,12.32,21.22,7.5,32.2A28.75,28.75,0,0,1,44.43,75.63c-3.08-.37-6-1.7-9.07-2.51a6.44,6.44,0,0,0-3-.26c-3.89.91-7.74,2-11.6,3C20.27,76,19.74,76.06,18.86,76.23Zm6.81-6.62c2.66-.7,4.87-1.4,7.13-1.81a5.83,5.83,0,0,1,3.28.39c4.8,2.31,9.76,3.52,15.08,2.55C60.68,69,67.31,63.63,70.27,54.45s.49-17.51-6.52-24.15-15.39-8.3-24.37-5c-13.79,5-19.47,20.55-12.5,33.56a5,5,0,0,1,.5,4.52C26.68,65.23,26.3,67.22,25.67,69.61Z"/><path class="cls-3" d="M25.53,69.82c.64-2.39,1-4.38,1.71-6.26A5,5,0,0,0,26.75,59c-7-13-1.3-28.55,12.49-33.56,9-3.27,17.38-1.61,24.38,5s9.51,14.87,6.52,24.15S60.54,69.22,51,71c-5.33,1-10.28-.24-15.08-2.55A5.86,5.86,0,0,0,32.66,68C30.4,68.42,28.2,69.12,25.53,69.82Zm30.08-8.35a22.93,22.93,0,0,0,4.57-2.28c2.49-1.92,2.06-4.65-.69-6-.57-.29-1.14-.56-1.7-.83-3.07-1.5-3.07-1.5-5.24,1-.75.89-1.47,1.7-2.83,1-3.66-1.78-6.89-4.07-8.87-7.73A2.34,2.34,0,0,1,41,44.54a4.09,4.09,0,0,0,.63-5.49,18.45,18.45,0,0,1-.88-2.14c-1.28-3-4-3.33-6.08-.7a7.92,7.92,0,0,0-1,8.5A30,30,0,0,0,43.88,57,23.3,23.3,0,0,0,55.61,61.47Z"/><path class="cls-4" d="M55.84,61.09A23.17,23.17,0,0,1,44.11,56.6,29.9,29.9,0,0,1,33.88,44.33a7.92,7.92,0,0,1,1-8.5c2.06-2.63,4.8-2.3,6.08.71a16.71,16.71,0,0,0,.88,2.13,4.09,4.09,0,0,1-.63,5.49,2.32,2.32,0,0,0-.15,2.15c2,3.66,5.21,5.95,8.87,7.74,1.36.66,2.08-.15,2.83-1C55,50.46,55,50.46,58,52l1.71.83c2.75,1.37,3.18,4.11.68,6A22.36,22.36,0,0,1,55.84,61.09Z"/></svg>